# This file uses centimeters as units for non-parametric coordinates.

mtllib Blockage1.mtl
g default
v -9.523457 -12.973667 -41.933408
v -11.644264 -12.973667 -34.417545
v -11.783643 -12.973667 -27.414458
v -9.927953 -12.973667 -21.609661
v -6.258841 -12.973667 -17.571365
v -1.135466 -12.973667 -15.694867
v 4.940661 -12.973667 -16.163853
v 11.374765 -12.973667 -18.932414
v -5.628814 -12.973667 -49.226336
v -9.523457 58.070625 -41.933408
v -11.644264 58.070625 -34.417545
v -11.783643 58.070625 -27.414458
v -9.927953 58.070625 -21.609661
v -6.258841 58.070625 -17.571365
v -1.135466 58.070625 -15.694867
v 4.940661 58.070625 -16.163853
v 11.374765 58.070625 -18.932414
v -5.628814 58.070625 -49.226336
vt 0.375000 0.312500
vt 0.387500 0.312500
vt 0.400000 0.312500
vt 0.412500 0.312500
vt 0.425000 0.312500
vt 0.437500 0.312500
vt 0.450000 0.312500
vt 0.462500 0.312500
vt 0.612500 0.312500
vt 0.625000 0.312500
vt 0.375000 0.688440
vt 0.387500 0.688440
vt 0.400000 0.688440
vt 0.412500 0.688440
vt 0.425000 0.688440
vt 0.437500 0.688440
vt 0.450000 0.688440
vt 0.462500 0.688440
vt 0.612500 0.688440
vt 0.625000 0.688440
vn 0.926480 0.000000 0.376344
vn 0.926480 0.000000 0.376344
vn 0.988099 0.000000 0.153819
vn 0.988099 0.000000 0.153819
vn 0.991141 0.000000 -0.132817
vn 0.991141 0.000000 -0.132817
vn 0.872027 0.000000 -0.489458
vn 0.872027 0.000000 -0.489458
vn 0.558167 0.000000 -0.829729
vn 0.558167 0.000000 -0.829729
vn 0.124695 0.000000 -0.992195
vn 0.124695 0.000000 -0.992195
vn -0.250538 0.000000 -0.968107
vn -0.250538 0.000000 -0.968107
vn -0.395256 0.000000 -0.918571
vn -0.395256 0.000000 -0.918571
vn 0.882098 0.000000 0.471067
vn 0.882098 0.000000 0.471067
s 1
g Blockage1
usemtl initialShadingGroup
f 1/1/1 10/11/2 11/12/3 2/2/4
f 2/2/4 11/12/3 12/13/5 3/3/6
f 3/3/6 12/13/5 13/14/7 4/4/8
f 4/4/8 13/14/7 14/15/9 5/5/10
f 5/5/10 14/15/9 15/16/11 6/6/12
f 6/6/12 15/16/11 16/17/13 7/7/14
f 7/7/14 16/17/13 17/18/15 8/8/16
f 9/9/17 18/19/18 10/20/2 1/10/1
