# This file uses centimeters as units for non-parametric coordinates.

mtllib Blockage2.mtl
g default
v -30.787257 -5.949271 -61.101559
v -24.411539 -5.949271 -49.715701
v -14.346338 -5.949271 -38.388284
v -1.576920 -5.949271 -28.228119
v 12.646762 -5.949271 -20.229751
v 26.932389 -5.949271 -15.176119
v 39.881595 -5.949271 -13.561910
v 50.226812 -5.949271 -15.545124
v -30.787257 54.362794 -61.101559
v -24.411539 54.362794 -49.715701
v -14.346338 54.362794 -38.388284
v -1.576920 54.362794 -28.228119
v 12.646762 54.362794 -20.229751
v 26.932389 54.362794 -15.176119
v 39.881595 54.362794 -13.561910
v 50.226812 54.362794 -15.545124
v -0.373101 54.362794 -85.449374
v -13.322305 54.362794 -87.063586
v -23.667518 54.362794 -85.080377
v -30.396095 54.362794 -79.693865
v 13.279640 54.362794 -50.312754
v -0.373101 54.362794 -85.449374
v -13.322305 54.362794 -87.063586
v 13.279640 54.362794 -50.312754
v -23.667518 54.362794 -85.080377
v -30.396095 54.362794 -79.693865
vt 0.387500 0.312500
vt 0.400000 0.312500
vt 0.412500 0.312500
vt 0.425000 0.312500
vt 0.437500 0.312500
vt 0.450000 0.312500
vt 0.462500 0.312500
vt 0.475000 0.312500
vt 0.387500 0.688440
vt 0.400000 0.688440
vt 0.412500 0.688440
vt 0.425000 0.688440
vt 0.437500 0.688440
vt 0.450000 0.688440
vt 0.462500 0.688440
vt 0.475000 0.688440
vt 0.648603 0.795466
vt 0.626409 0.751908
vt 0.591842 0.717341
vt 0.656250 0.843750
vt 0.500000 0.837500
vt 0.591842 0.717341
vt 0.626409 0.751908
vt 0.500000 0.837500
vt 0.648603 0.795466
vt 0.656250 0.843750
vn 0.872518 0.000000 -0.488582
vn 0.872518 0.000000 -0.488582
vn 0.810054 0.000000 -0.586355
vn 0.810054 0.000000 -0.586355
vn 0.685300 0.000000 -0.728261
vn 0.685300 0.000000 -0.728261
vn 0.558167 0.000000 -0.829729
vn 0.558167 0.000000 -0.829729
vn 0.416266 0.000000 -0.909243
vn 0.416266 0.000000 -0.909243
vn 0.237804 0.000000 -0.971313
vn 0.237804 0.000000 -0.971313
vn -0.015839 0.000000 -0.999875
vn -0.015839 0.000000 -0.999875
vn -0.188275 0.000000 -0.982116
vn -0.188275 0.000000 -0.982116
vn 0.000000 0.000000 -0.000000
vn 0.000000 0.000000 -0.000000
vn 0.000000 0.000000 -0.000000
vn 0.000000 0.000000 -0.000000
vn 0.000000 0.000000 -0.000000
vn 0.000000 0.000000 -0.000000
vn 0.000000 0.000000 -0.000000
vn 0.000000 0.000000 -0.000000
vn 0.000000 0.000000 -0.000000
vn 0.000000 0.000000 -0.000000
vn 0.000000 0.000000 -0.000000
vn 0.000000 0.000000 -0.000000
vn 0.000000 0.000000 -0.000000
vn 0.000000 0.000000 -0.000000
vn 0.000000 0.000000 -0.000000
vn 0.000000 0.000000 -0.000000
vn 0.000000 0.000000 -0.000000
vn 0.000000 0.000000 -0.000000
vn 0.000000 0.000000 -0.000000
vn 0.000000 0.000000 -0.000000
s 1
g Blockage2
usemtl initialShadingGroup
f 1/1/1 9/9/2 10/10/3 2/2/4
f 2/2/4 10/10/3 11/11/5 3/3/6
f 3/3/6 11/11/5 12/12/7 4/4/8
f 4/4/8 12/12/7 13/13/9 5/5/10
f 5/5/10 13/13/9 14/14/11 6/6/12
f 6/6/12 14/14/11 15/15/13 7/7/14
f 7/7/14 15/15/13 16/16/15 8/8/16
s off
f 17/19/17 22/22/18 23/23/19 18/18/20
f 21/21/21 24/24/22 22/22/23 17/19/24
f 18/18/25 23/23/26 25/25/27 19/17/28
f 19/17/29 25/25/30 26/26/31 20/20/32
f 20/20/33 26/26/34 24/24/35 21/21/36
