# This file uses centimeters as units for non-parametric coordinates.

mtllib semi.mtl
g default
v 5.430623 -0.179813 -0.994711
v 0.511062 -0.179813 0.279051
v 0.714067 -0.179813 0.752109
v 1.008142 -0.179813 1.174619
v 1.381249 -0.179813 1.529283
v 1.818111 -0.179813 1.801581
v 2.300844 -0.179813 1.980366
v 2.809684 -0.179813 2.058318
v 3.323800 -0.179813 2.032245
v 3.822144 -0.179813 1.903215
v 4.284313 -0.179813 1.676510
v 4.691386 -0.179813 1.361412
v 5.026697 -0.179813 0.970821
v 5.276520 -0.179813 0.520728
v 5.430625 -0.179813 0.029559
v 5.482704 -0.179813 -0.482576
v 6.261316 -0.179813 -1.165422
v -0.298099 -0.179813 0.532926
v -0.027425 -0.179813 1.163670
v 0.364675 -0.179813 1.727017
v 0.862150 -0.179813 2.199902
v 1.444633 -0.179813 2.562967
v 2.088277 -0.179813 2.801347
v 2.766731 -0.179813 2.905282
v 3.452219 -0.179813 2.870518
v 4.116677 -0.179813 2.698478
v 4.732902 -0.179813 2.396206
v 5.275666 -0.179813 1.976075
v 5.722748 -0.179813 1.455287
v 6.055845 -0.179813 0.855163
v 6.261318 -0.179813 0.200271
v 6.330757 -0.179813 -0.482576
v 7.092009 -0.179813 -1.336134
v -1.107259 -0.179813 0.786802
v -0.768918 -0.179813 1.575232
v -0.278792 -0.179813 2.279415
v 0.343052 -0.179813 2.870522
v 1.071156 -0.179813 3.324353
v 1.875710 -0.179813 3.622328
v 2.723778 -0.179813 3.752247
v 3.580638 -0.179813 3.708792
v 4.411210 -0.179813 3.493742
v 5.181492 -0.179813 3.115901
v 5.859947 -0.179813 2.590738
v 6.418799 -0.179813 1.939753
v 6.835170 -0.179813 1.189598
v 7.092012 -0.179813 0.370983
v 7.178810 -0.179813 -0.482576
v 7.092009 -0.147650 -1.336134
v -1.107259 -0.147650 0.786802
v -0.768918 -0.147650 1.575232
v -0.278792 -0.147650 2.279415
v 0.343052 -0.147650 2.870522
v 1.071156 -0.147650 3.324353
v 1.875710 -0.147650 3.622328
v 2.723778 -0.147650 3.752247
v 3.580638 -0.147650 3.708792
v 4.411210 -0.147650 3.493742
v 5.181492 -0.147650 3.115901
v 5.859947 -0.147650 2.590738
v 6.418799 -0.147650 1.939753
v 6.835170 -0.147650 1.189598
v 7.092012 -0.147650 0.370983
v 7.178810 -0.147650 -0.482576
v 6.261316 -0.147650 -1.165422
v -0.298099 -0.147650 0.532926
v -0.027425 -0.147650 1.163670
v 0.364675 -0.147650 1.727017
v 0.862150 -0.147650 2.199902
v 1.444633 -0.147650 2.562967
v 2.088277 -0.147650 2.801347
v 2.766731 -0.147650 2.905282
v 3.452219 -0.147650 2.870518
v 4.116677 -0.147650 2.698478
v 4.732902 -0.147650 2.396206
v 5.275666 -0.147650 1.976075
v 5.722748 -0.147650 1.455287
v 6.055845 -0.147650 0.855163
v 6.261318 -0.147650 0.200271
v 6.330757 -0.147650 -0.482576
v 5.430623 -0.147650 -0.994711
v 0.511062 -0.147650 0.279051
v 0.714067 -0.147650 0.752109
v 1.008142 -0.147650 1.174619
v 1.381249 -0.147650 1.529283
v 1.818111 -0.147650 1.801581
v 2.300844 -0.147650 1.980366
v 2.809684 -0.147650 2.058318
v 3.323800 -0.147650 2.032245
v 3.822144 -0.147650 1.903215
v 4.284313 -0.147650 1.676510
v 4.691386 -0.147650 1.361412
v 5.026697 -0.147650 0.970821
v 5.276520 -0.147650 0.520728
v 5.430625 -0.147650 0.029559
v 5.482704 -0.147650 -0.482576
vt 0.591831 0.137378
vt 0.410549 0.184315
vt 0.418030 0.201747
vt 0.428866 0.217316
vt 0.442615 0.230385
vt 0.458713 0.240419
vt 0.476501 0.247007
vt 0.495252 0.249880
vt 0.514196 0.248919
vt 0.532560 0.244164
vt 0.549590 0.235810
vt 0.564591 0.224199
vt 0.576947 0.209806
vt 0.586152 0.193221
vt 0.591831 0.175122
vt 0.593750 0.156250
vt 0.622441 0.131088
vt 0.380733 0.193670
vt 0.390707 0.216913
vt 0.405155 0.237671
vt 0.423487 0.255097
vt 0.444951 0.268476
vt 0.468668 0.277260
vt 0.493669 0.281090
vt 0.518928 0.279809
vt 0.543413 0.273469
vt 0.566121 0.262331
vt 0.586121 0.246849
vt 0.602595 0.227659
vt 0.614870 0.205544
vt 0.622441 0.181412
vt 0.625000 0.156250
vt 0.653051 0.124797
vt 0.350916 0.203025
vt 0.363383 0.232078
vt 0.381444 0.258027
vt 0.404358 0.279809
vt 0.431188 0.296532
vt 0.460836 0.307512
vt 0.492086 0.312299
vt 0.523661 0.310698
vt 0.554266 0.302774
vt 0.582651 0.288851
vt 0.607651 0.269499
vt 0.628244 0.245511
vt 0.643587 0.217868
vt 0.653052 0.187703
vt 0.656250 0.156250
vt 0.504032 0.312500
vt 0.512097 0.312500
vt 0.520161 0.312500
vt 0.528226 0.312500
vt 0.536290 0.312500
vt 0.544355 0.312500
vt 0.552419 0.312500
vt 0.560484 0.312500
vt 0.568548 0.312500
vt 0.576613 0.312500
vt 0.584677 0.312500
vt 0.592742 0.312500
vt 0.600806 0.312500
vt 0.608871 0.312500
vt 0.616935 0.312500
vt 0.625000 0.312500
vt 0.504032 0.688440
vt 0.512097 0.688440
vt 0.520161 0.688440
vt 0.528226 0.688440
vt 0.536290 0.688440
vt 0.544355 0.688440
vt 0.552419 0.688440
vt 0.560484 0.688440
vt 0.568548 0.688440
vt 0.576613 0.688440
vt 0.584677 0.688440
vt 0.592742 0.688440
vt 0.600806 0.688440
vt 0.608871 0.688440
vt 0.616935 0.688440
vt 0.625000 0.688440
vt 0.653051 0.812297
vt 0.643587 0.782132
vt 0.628244 0.754489
vt 0.607651 0.730501
vt 0.582651 0.711149
vt 0.554266 0.697226
vt 0.523661 0.689302
vt 0.492086 0.687701
vt 0.460836 0.692488
vt 0.431188 0.703468
vt 0.404359 0.720191
vt 0.381444 0.741973
vt 0.363383 0.767922
vt 0.350916 0.796975
vt 0.653052 0.875203
vt 0.656250 0.843750
vt 0.622441 0.818588
vt 0.614870 0.794456
vt 0.602595 0.772342
vt 0.586121 0.753151
vt 0.566121 0.737670
vt 0.543413 0.726531
vt 0.518929 0.720192
vt 0.493669 0.718911
vt 0.468668 0.722740
vt 0.444951 0.731524
vt 0.423487 0.744903
vt 0.405155 0.762328
vt 0.390707 0.783087
vt 0.380733 0.806330
vt 0.622441 0.868912
vt 0.625000 0.843750
vt 0.591831 0.824878
vt 0.586152 0.806779
vt 0.576946 0.790194
vt 0.564591 0.775801
vt 0.549590 0.764190
vt 0.532560 0.755836
vt 0.514196 0.751081
vt 0.495252 0.750120
vt 0.476501 0.752993
vt 0.458713 0.759581
vt 0.442615 0.769615
vt 0.428866 0.782684
vt 0.418030 0.798253
vt 0.410549 0.815685
vt 0.591831 0.862622
vt 0.593750 0.843750
vn 0.000000 -1.000000 0.000000
vn 0.000000 -1.000000 0.000000
vn 0.000000 -1.000000 0.000000
vn 0.000000 -1.000000 0.000000
vn 0.000000 -1.000000 0.000000
vn 0.000000 -1.000000 0.000000
vn 0.000000 -1.000000 0.000000
vn 0.000000 -1.000000 0.000000
vn 0.000000 -1.000000 0.000000
vn 0.000000 -1.000000 -0.000000
vn 0.000000 -1.000000 0.000000
vn 0.000000 -1.000000 -0.000000
vn 0.000000 -1.000000 0.000000
vn 0.000000 -1.000000 0.000000
vn 0.000000 -1.000000 -0.000000
vn 0.000000 -1.000000 0.000000
vn 0.000000 -1.000000 -0.000000
vn 0.000000 -1.000000 0.000000
vn 0.000000 -1.000000 -0.000000
vn 0.000000 -1.000000 0.000000
vn 0.000000 -1.000000 0.000000
vn 0.000000 -1.000000 0.000000
vn 0.000000 -1.000000 0.000000
vn 0.000000 -1.000000 0.000000
vn 0.000000 -1.000000 0.000000
vn 0.000000 -1.000000 -0.000000
vn 0.000000 -1.000000 0.000000
vn 0.000000 -1.000000 -0.000000
vn 0.000000 -1.000000 0.000000
vn 0.000000 -1.000000 0.000000
vn 0.000000 -1.000000 0.000000
vn 0.000000 -1.000000 0.000000
vn 0.000000 -1.000000 0.000000
vn 0.000000 -1.000000 0.000000
vn 0.000000 -1.000000 0.000000
vn 0.000000 -1.000000 0.000000
vn 0.000000 -1.000000 -0.000000
vn 0.000000 -1.000000 -0.000000
vn 0.000000 -1.000000 0.000000
vn 0.000000 -1.000000 0.000000
vn 0.000000 -1.000000 0.000000
vn 0.000000 -1.000000 0.000000
vn 0.000000 -1.000000 0.000000
vn 0.000000 -1.000000 0.000000
vn 0.000000 -1.000000 -0.000000
vn 0.000000 -1.000000 -0.000000
vn 0.000000 -1.000000 0.000000
vn 0.000000 -1.000000 0.000000
vn -0.918958 0.000000 0.394355
vn -0.874347 0.000000 0.485302
vn -0.874347 0.000000 0.485302
vn -0.918958 0.000000 0.394355
vn -0.758758 0.000000 0.651372
vn -0.758758 0.000000 0.651372
vn -0.612106 0.000000 0.790775
vn -0.612106 0.000000 0.790775
vn -0.440395 0.000000 0.897804
vn -0.440395 0.000000 0.897804
vn -0.250653 0.000000 0.968077
vn -0.250653 0.000000 0.968077
vn -0.050649 0.000000 0.998716
vn -0.050649 0.000000 0.998716
vn 0.151427 0.000000 0.988468
vn 0.151427 0.000000 0.988468
vn 0.347305 0.000000 0.937752
vn 0.347305 0.000000 0.937752
vn 0.528964 0.000000 0.848644
vn 0.528964 0.000000 0.848644
vn 0.688967 0.000000 0.724793
vn 0.688967 0.000000 0.724793
vn 0.820763 0.000000 0.571268
vn 0.820763 0.000000 0.571268
vn 0.918958 0.000000 0.394356
vn 0.918958 0.000000 0.394356
vn 0.979530 0.000000 0.201299
vn 0.979530 0.000000 0.201299
vn 1.000000 0.000000 -0.000002
vn 1.000000 0.000000 -0.000002
vn 0.994869 0.000000 -0.101172
vn 0.994869 0.000000 -0.101172
vn 0.000000 1.000000 0.000000
vn 0.000000 1.000000 0.000000
vn 0.000000 1.000000 0.000000
vn 0.000000 1.000000 0.000000
vn 0.000000 1.000000 -0.000000
vn 0.000000 1.000000 -0.000000
vn 0.000000 1.000000 -0.000000
vn 0.000000 1.000000 -0.000000
vn 0.000000 1.000000 -0.000000
vn 0.000000 1.000000 -0.000000
vn 0.000000 1.000000 -0.000000
vn 0.000000 1.000000 -0.000000
vn 0.000000 1.000000 -0.000000
vn 0.000000 1.000000 -0.000000
vn 0.000000 1.000000 0.000000
vn 0.000000 1.000000 0.000000
vn 0.000000 1.000000 0.000000
vn 0.000000 1.000000 0.000000
vn 0.000000 1.000000 0.000000
vn 0.000000 1.000000 0.000000
vn 0.000000 1.000000 0.000000
vn 0.000000 1.000000 -0.000000
vn 0.000000 1.000000 0.000000
vn 0.000000 1.000000 0.000000
vn 0.000000 1.000000 -0.000000
vn 0.000000 1.000000 -0.000000
vn 0.000000 1.000000 0.000000
vn 0.000000 1.000000 0.000000
vn 0.000000 1.000000 0.000000
vn 0.000000 1.000000 0.000000
vn 0.000000 1.000000 0.000000
vn 0.000000 1.000000 0.000000
vn 0.000000 1.000000 0.000000
vn 0.000000 1.000000 0.000000
vn 0.000000 1.000000 0.000000
vn 0.000000 1.000000 0.000000
vn 0.000000 1.000000 0.000000
vn 0.000000 1.000000 0.000000
vn 0.000000 1.000000 0.000000
vn 0.000000 1.000000 0.000000
vn 0.000000 1.000000 0.000000
vn 0.000000 1.000000 0.000000
vn 0.000000 1.000000 -0.000000
vn 0.000000 1.000000 -0.000000
vn 0.000000 1.000000 0.000000
vn 0.000000 1.000000 0.000000
vn 0.000000 1.000000 0.000000
vn 0.000000 1.000000 0.000000
s 1
g pCylinder1
usemtl initialShadingGroup
f 2/2/1 3/3/2 19/19/3 18/18/4
f 3/3/2 4/4/5 20/20/6 19/19/3
f 4/4/5 5/5/7 21/21/8 20/20/6
f 5/5/7 6/6/9 22/22/10 21/21/8
f 6/6/9 7/7/11 23/23/12 22/22/10
f 7/7/11 8/8/13 24/24/14 23/23/12
f 8/8/13 9/9/15 25/25/16 24/24/14
f 9/9/15 10/10/17 26/26/18 25/25/16
f 10/10/17 11/11/19 27/27/20 26/26/18
f 11/11/19 12/12/21 28/28/22 27/27/20
f 12/12/21 13/13/23 29/29/24 28/28/22
f 13/13/23 14/14/25 30/30/26 29/29/24
f 14/14/25 15/15/27 31/31/28 30/30/26
f 15/15/27 16/16/29 32/32/30 31/31/28
f 16/16/29 1/1/31 17/17/32 32/32/30
f 18/18/4 19/19/3 35/35/33 34/34/34
f 19/19/3 20/20/6 36/36/35 35/35/33
f 20/20/6 21/21/8 37/37/36 36/36/35
f 21/21/8 22/22/10 38/38/37 37/37/36
f 22/22/10 23/23/12 39/39/38 38/38/37
f 23/23/12 24/24/14 40/40/39 39/39/38
f 24/24/14 25/25/16 41/41/40 40/40/39
f 25/25/16 26/26/18 42/42/41 41/41/40
f 26/26/18 27/27/20 43/43/42 42/42/41
f 27/27/20 28/28/22 44/44/43 43/43/42
f 28/28/22 29/29/24 45/45/44 44/44/43
f 29/29/24 30/30/26 46/46/45 45/45/44
f 30/30/26 31/31/28 47/47/46 46/46/45
f 31/31/28 32/32/30 48/48/47 47/47/46
f 32/32/30 17/17/32 33/33/48 48/48/47
s 2
f 34/49/49 35/50/50 51/66/51 50/65/52
f 35/50/50 36/51/53 52/67/54 51/66/51
f 36/51/53 37/52/55 53/68/56 52/67/54
f 37/52/55 38/53/57 54/69/58 53/68/56
f 38/53/57 39/54/59 55/70/60 54/69/58
f 39/54/59 40/55/61 56/71/62 55/70/60
f 40/55/61 41/56/63 57/72/64 56/71/62
f 41/56/63 42/57/65 58/73/66 57/72/64
f 42/57/65 43/58/67 59/74/68 58/73/66
f 43/58/67 44/59/69 60/75/70 59/74/68
f 44/59/69 45/60/71 61/76/72 60/75/70
f 45/60/71 46/61/73 62/77/74 61/76/72
f 46/61/73 47/62/75 63/78/76 62/77/74
f 47/62/75 48/63/77 64/79/78 63/78/76
f 48/63/77 33/64/79 49/80/80 64/79/78
s 3
f 50/94/81 51/93/82 67/109/83 66/110/84
f 51/93/82 52/92/85 68/108/86 67/109/83
f 52/92/85 53/91/87 69/107/88 68/108/86
f 53/91/87 54/90/89 70/106/90 69/107/88
f 54/90/89 55/89/91 71/105/92 70/106/90
f 55/89/91 56/88/93 72/104/94 71/105/92
f 56/88/93 57/87/95 73/103/96 72/104/94
f 57/87/95 58/86/97 74/102/98 73/103/96
f 58/86/97 59/85/99 75/101/100 74/102/98
f 59/85/99 60/84/101 76/100/102 75/101/100
f 60/84/101 61/83/103 77/99/104 76/100/102
f 61/83/103 62/82/105 78/98/106 77/99/104
f 62/82/105 63/81/107 79/97/108 78/98/106
f 63/81/107 64/96/109 80/112/110 79/97/108
f 64/96/109 49/95/111 65/111/112 80/112/110
f 66/110/84 67/109/83 83/125/113 82/126/114
f 67/109/83 68/108/86 84/124/115 83/125/113
f 68/108/86 69/107/88 85/123/116 84/124/115
f 69/107/88 70/106/90 86/122/117 85/123/116
f 70/106/90 71/105/92 87/121/118 86/122/117
f 71/105/92 72/104/94 88/120/119 87/121/118
f 72/104/94 73/103/96 89/119/120 88/120/119
f 73/103/96 74/102/98 90/118/121 89/119/120
f 74/102/98 75/101/100 91/117/122 90/118/121
f 75/101/100 76/100/102 92/116/123 91/117/122
f 76/100/102 77/99/104 93/115/124 92/116/123
f 77/99/104 78/98/106 94/114/125 93/115/124
f 78/98/106 79/97/108 95/113/126 94/114/125
f 79/97/108 80/112/110 96/128/127 95/113/126
f 80/112/110 65/111/112 81/127/128 96/128/127
